<?xml version="1.0" encoding="UTF-8" standalone="no"?>
<svg
   sodipodi:docname="meirin.svg"
   inkscape:version="1.2.1 (9c6d41e4, 2022-07-14)"
   id="svg8"
   version="1.1"
   viewBox="0 0 52.916665 105.83333"
   height="400"
   width="200"
   xmlns:inkscape="http://www.inkscape.org/namespaces/inkscape"
   xmlns:sodipodi="http://sodipodi.sourceforge.net/DTD/sodipodi-0.dtd"
   xmlns:xlink="http://www.w3.org/1999/xlink"
   xmlns="http://www.w3.org/2000/svg"
   xmlns:svg="http://www.w3.org/2000/svg"
   xmlns:rdf="http://www.w3.org/1999/02/22-rdf-syntax-ns#"
   xmlns:cc="http://creativecommons.org/ns#"
   xmlns:dc="http://purl.org/dc/elements/1.1/">
  <defs
     id="defs2">
    <g
       id="shape0"
       transform="translate(60.75,140.2)">
      <path
         d="m 23.9,-131.95 -8.1,1.95 q 2.3,2 2.85,9.5 0.4,5.1 -0.05,10.5 l 0.3,7.9 1.05,3.5 0.65,0.7 -0.15,1.05 q 5.5,18.35 8.15,25.6 2.8,7.6 7.45,17.1 l 7.5,15.1 q 8.05,17.05 8.05,30.4 0,5.8 -0.9,8.2 -1.5,4.05 -6.55,6.45 -12,5.75 -53.3,5.75 -34.7,0 -41.5,-1.2 -2.2,-0.35 -2.8,-1.2 -0.7,-0.95 -1.8,-1.35 -5.5,-2 -5.5,-4.5 0,-3.6 3.05,-4.15 0.65,-7.55 11.95,-67.85 5.9,-31.4 9.7,-48.15 l -1.7,-5.25 q 0,-3.1 0.55,-4.1 0.9,-1.65 3.9,-1.75 l 1.25,-4.15 v -6.7 q 12.15,4.05 30.05,4.05 10.75,0 26.3,-4.55 l 3.65,-1.1 v 7.15 l -4.05,1.1 m -18.75,3.85 q -9.25,1.3 -17.9,1.3 -6.9,0 -13.5,-1.5 l -0.05,1.3 q 4.2,0.9 8.75,3 8.15,3.75 10.15,3.75 0.3,0 12.65,-6.15 l -0.1,-1.7 m 5.95,7.35 H 9.85 l -3.5,1.8 -7.25,3.95 q 5.4,6.35 10.9,10.8 l 0.85,0.7 0.25,-17.25 m 0.45,38.95 q -0.4,0.8 -1.8,1.1 l -14.05,0.45 0.9,7.15 0.55,4.5 q 9.6,0.4 12.6,2.1 1.3,0.7 1.25,1.65 l -0.25,0.95 q 0,2.45 -1.95,3.15 l -6.3,0.5 -4.4,-0.2 1.2,11.75 q 10.35,0.15 12.95,1.75 1.55,0.9 0.5,2.05 l -0.25,2.1 q -0.35,0.8 -1.75,1.1 l -7.1,0.4 1.9,1.95 q 8.2,8.35 10.05,8.35 4.45,0 9.35,-7.85 l 3.6,-5.45 q 1.1,-1.35 2.15,-1.95 l -6.1,-15.7 Q 18.75,-77.1 14.7,-89.25 12.65,-89.6 5.6,-96.8 l -13,-0.95 q 0.9,3.25 2,10 13.5,0 16.65,1.8 1.6,0.9 0.5,2.05 0,1.65 -0.2,2.1 m 22.6,44.35 q -1.95,2.9 -5.5,6.95 l -4.4,4.7 q 0.75,3.45 1.35,9.4 0.75,7.2 1,14.65 v 5 q 4.15,-1.1 9,-3.75 8.5,-4.6 8.5,-8.25 0,-3.1 -6.1,-18.95 l -3.85,-9.75 m -16.8,16.2 q -8.15,0 -17,-11 L -2.7,-36.4 q -6.2,20.15 -16.3,20.15 -4.1,0 -24.7,-15.25 l -1.55,10.55 q -2.9,16.75 -5.7,22.6 h 0.05 Q -45.2,4 20.3,4 18.75,-2.7 18.1,-18.75 v -2.6 l -0.75,0.1 m -46.85,-97.5 1.75,4.15 q 1.7,3.35 4.5,7.35 4.25,-5.4 7.5,-8 -1.05,-1.05 -6.4,-2.3 l -5,-1 -2.35,-0.2 m -0.95,18.25 0.35,-0.15 -0.2,-0.45 -0.15,0.6 m 22.3,-5.25 5.35,0.2 q -4.85,-4.95 -5.45,-4.95 -2.9,0 -7,5.25 l 7.1,-0.5 m -34.35,68 q 3.35,0 13.35,6 l 10.15,6 q 4.8,0 8.5,-9.75 l 1.6,-5.8 q -8.45,-0.3 -10.6,-1.55 -0.9,-0.55 -0.65,-1.2 l 0.4,-0.7 -0.05,-1.75 q 0.2,-0.8 1.35,-1.25 L -7.8,-48.7 Q -8.05,-54 -8.95,-61.05 l -0.3,-0.05 q -9.95,-0.9 -10.5,-1.4 -0.6,-0.25 -0.8,-0.45 -0.2,-0.2 -0.2,-1.8 0,-2.35 1.25,-3 2,-1 9.4,-1 l -0.15,-0.7 -1.65,-10.9 q -8.45,-0.3 -10.6,-1.5 -0.95,-0.55 -0.7,-1.2 l 0.45,-0.7 -0.05,-1.75 q 0.1,-0.8 1.3,-1.25 l 8.85,-0.9 -0.1,-1.85 q -0.3,-3.3 0,-6 l 0.4,-2.15 q -5.7,0.3 -9.45,1.5 -2.35,2.9 -3.2,2.9 -0.6,0 -1.3,-0.7 l -2.8,2.55 q -1.45,1.1 -3.65,1.15 l -6.25,27.75 -3.8,24.7 v 0.05 h 0.3"
         fill="#000000"
         fill-rule="evenodd"
         stroke="none"
         id="path837" />
      <path
         d="m 5.15,-128.1 0.1,1.7 q -12.35,6.15 -12.65,6.15 -2,0 -10.15,-3.75 -4.55,-2.1 -8.75,-3 l 0.05,-1.3 q 6.6,1.5 13.5,1.5 8.65,0 17.9,-1.3 m -13.3,22.35 -7.1,0.5 q 4.1,-5.25 7,-5.25 0.6,0 5.45,4.95 l -5.35,-0.2 m -22.3,5.25 0.15,-0.6 0.2,0.45 -0.35,0.15"
         fill="#ffffff"
         fill-rule="evenodd"
         stroke="none"
         id="path839" />
      <path
         d="M 11.1,-120.75 10.85,-103.5 10,-104.2 Q 4.5,-108.65 -0.9,-115 l 7.25,-3.95 3.5,-1.8 h 1.25 m -40.6,2 2.35,0.2 5,1 q 5.35,1.25 6.4,2.3 -3.25,2.6 -7.5,8 -2.8,-4 -4.5,-7.35 l -1.75,-4.15"
         fill="#666766"
         fill-rule="evenodd"
         stroke="none"
         id="path841" />
      <path
         d="m 11.55,-81.8 q 0.2,-0.45 0.2,-2.1 1.1,-1.15 -0.5,-2.05 -3.15,-1.8 -16.65,-1.8 -1.1,-6.75 -2,-10 l 13,0.95 q 7.05,7.2 9.1,7.55 4.05,12.15 9.9,27.3 l 6.1,15.7 q -1.05,0.6 -2.15,1.95 l -3.6,5.45 Q 20.05,-31 15.6,-31 13.75,-31 5.55,-39.35 l -1.9,-1.95 7.1,-0.4 q 1.4,-0.3 1.75,-1.1 l 0.25,-2.1 q 1.05,-1.15 -0.5,-2.05 -2.6,-1.6 -12.95,-1.75 l -1.2,-11.75 4.4,0.2 6.3,-0.5 q 1.95,-0.7 1.95,-3.15 L 11,-64.85 q 0.05,-0.95 -1.25,-1.65 -3,-1.7 -12.6,-2.1 l -0.55,-4.5 -0.9,-7.15 14.05,-0.45 q 1.4,-0.3 1.8,-1.1 m -54.35,44 3.8,-24.7 6.25,-27.75 q 2.2,-0.05 3.65,-1.15 l 2.8,-2.55 q 0.7,0.7 1.3,0.7 0.85,0 3.2,-2.9 3.75,-1.2 9.45,-1.5 l -0.4,2.15 q -0.3,2.7 0,6 l 0.1,1.85 -8.85,0.9 q -1.2,0.45 -1.3,1.25 l 0.05,1.75 -0.45,0.7 q -0.25,0.65 0.7,1.2 2.15,1.2 10.6,1.5 l 1.65,10.9 0.15,0.7 q -7.4,0 -9.4,1 -1.25,0.65 -1.25,3 0,1.6 0.2,1.8 0.2,0.2 0.8,0.45 0.55,0.5 10.5,1.4 l 0.3,0.05 q 0.9,7.05 1.15,12.35 l -10.65,0.95 q -1.15,0.45 -1.35,1.25 l 0.05,1.75 -0.4,0.7 q -0.25,0.65 0.65,1.2 2.15,1.25 10.6,1.55 l -1.6,5.8 q -3.7,9.75 -8.5,9.75 l -10.15,-6 q -10,-6 -13.35,-6 l -0.3,-0.05"
         fill="#90a446"
         fill-rule="evenodd"
         stroke="none"
         id="path843" />
      <path
         d="m 17.35,-21.25 0.75,-0.1 v 2.6 Q 18.75,-2.7 20.3,4 -45.2,4 -50.9,1.65 h -0.05 q 2.8,-5.85 5.7,-22.6 l 1.55,-10.55 q 20.6,15.25 24.7,15.25 10.1,0 16.3,-20.15 l 3.05,4.15 q 8.85,11 17,11 m 16.8,-16.2 3.85,9.75 q 6.1,15.85 6.1,18.95 0,3.65 -8.5,8.25 -4.85,2.65 -9,3.75 v -5 q -0.25,-7.45 -1,-14.65 -0.6,-5.95 -1.35,-9.4 l 4.4,-4.7 q 3.55,-4.05 5.5,-6.95"
         fill="#65731e"
         fill-rule="evenodd"
         stroke="none"
         id="path845" />
    </g>
    <g
       id="shape0-4"
       transform="translate(22,37.75)">
      <path
         d="m 132.6,-15.8 q 7.5,26.1 7.15,38.55 -0.4,12.95 1.85,23.5 2.25,10.5 5.95,15.65 3.7,5.15 2.8,11.6 -0.95,6.45 -9.05,12.95 -8.1,6.5 -29.25,16.8 -14.3,7 -29.4,11.4 -15.45,4.55 -26.3,4.55 -37.35,0 -49.4,-14.25 l -3.25,-2.7 -2.85,-2.2 Q -4.2,96 -10.3,87.45 q -6.25,-8.8 -8.3,-18.8 -2.1,-10 -2.8,-14.5 Q -22,50.5 -22,41 q 0,-22.7 4.4,-38.25 0.85,-3.05 2.4,-13.8 1.55,-10.75 46.25,-22 44.65,-11.3 72.15,4.7 11.6,2.85 19.55,7.4 7.35,4.2 9.85,5.15"
         fill="#fff1dd"
         fill-rule="evenodd"
         stroke="none"
         id="path868" />
    </g>
    <g
       id="shape0-9"
       transform="translate(66.1,135.75)">
      <path
         d="m 12.05,-121.95 q -4.95,-6.95 -4.95,-8.95 0,-4.85 3.75,-4.85 2.4,0 13.8,16.4 10.95,15.8 10.95,16.7 0,2.35 -3.3,7.3 3.9,5.25 9.35,18.65 4.45,11.05 7.95,22.3 l 0.15,3.5 q -0.05,1.85 -0.9,2.9 -2.2,2.75 -12.5,2.75 -4.25,0 -4.25,-3.5 0,-2.6 3.65,-4.05 2.35,-0.95 6.35,-1.45 -1.1,-5.1 -9.75,-22.45 L 26.3,-89.15 q -1.7,0.9 -3.45,0.9 -4.75,0 -4.75,-3.5 0,-1.25 1.95,-3.15 l 2.7,-2.35 q 4.6,-3.6 4.6,-4.75 l -10.1,-12.95 -5.2,-7 m -61.3,72.25 q 3,0.4 3,4.2 0,2.35 -0.95,3 -1.8,1.25 -8.3,1.25 -8.45,0 -10.2,-3.85 -0.55,-1.25 -0.35,-2.75 l 0.3,-1.4 q 0,-0.95 2.1,-8.6 2.45,-8.75 5.15,-16.9 5.1,-15.15 8.75,-20.75 -1.3,-2.85 -2.25,-6.15 l -0.75,-3.25 q 0,-1.75 20.75,-30.85 3.75,0 3.75,4.25 0,3.45 -8.1,15.45 l -8.15,11.55 q 0,3.15 4.2,7.8 l 0.95,1 q 5.1,5.3 5.1,6.2 0,4.25 -3.75,4.25 -2.3,0 -4.35,-1.05 l -2.1,-1.45 -4.95,12.6 q -7.6,18.9 -8.85,25.65 v 0.5 h 0.05 l 8.2,-0.75 0.75,0.05"
         fill="#000000"
         fill-rule="evenodd"
         stroke="none"
         id="path904" />
      <path
         d="m 12.05,-121.95 5.2,7 10.1,12.95 q 0,1.15 -4.6,4.75 l -2.7,2.35 -0.6,-1.95 0.15,-1.05 -0.65,-0.7 -3.3,-11.2 -3.6,-12.15 m -48.4,5.9 0.15,0.05 -4.1,19.3 q -4.2,-4.65 -4.2,-7.8 l 8.15,-11.55"
         fill="#65731e"
         fill-rule="evenodd"
         stroke="none"
         id="path906" />
      <path
         d="m 22.85,-88.25 q 1.75,0 3.45,-0.9 l 6.05,12.45 q 8.65,17.35 9.75,22.45 -4,0.5 -6.35,1.45 l -0.7,-1.35 Q 30.4,-63.65 27.6,-71.25 25.65,-76.6 22.15,-88 l 0.7,-0.25 m -65.2,1.95 -3.4,17.8 -3.5,18.8 -0.75,-0.05 -8.2,0.75 -0.05,-0.5 q 1.25,-6.75 8.85,-25.65 l 4.95,-12.6 2.1,1.45"
         fill="#fff1dd"
         fill-rule="evenodd"
         stroke="none"
         id="path908" />
    </g>
    <g
       id="shape0-8"
       transform="translate(31.9,229.75)">
      <path
         d="m 66.85,-229.75 q 5,0 3.75,28.25 1.25,28.25 -3.75,28.25 -1.5,0 -2.05,-0.35 l -1.45,-0.9 q -0.25,-9 -0.25,-27 -0.3,-7.25 0,-14.25 0.6,-14 3.75,-14"
         fill="#000000"
         fill-rule="evenodd"
         stroke="none"
         id="path930" />
      <path
         d="m -28,-226.75 q 5,0 3.75,28.25 1.25,28.25 -3.75,28.25 -1.5,0 -2.05,-0.35 l -1.45,-0.9 -0.25,-27 q -0.3,-7.25 0,-14.25 0.6,-14 3.75,-14"
         fill="#000000"
         fill-rule="evenodd"
         stroke="none"
         id="path932" />
    </g>
    <g
       id="shape0-7"
       transform="translate(29.8,166.8)">
      <path
         d="m -24.4,-137.15 q -0.75,2.15 -2.2,2.15 -4,0 -3,-5.2 0,-3.25 0.9,-6.15 1.7,-5.5 6.65,-9.65 8.5,-7.2 25.65,-9.6 l 19.1,-1.2 q 9.95,0 12.4,0.2 5.15,0.35 7.65,2 2.7,1.8 3.8,6.05 1.05,4.1 1.05,12.35 0,5.7 -2.9,5.7 -3.3,0 -3.7,-3.9 l -0.05,-0.65 q -0.15,-1.8 0,-4.8 l 0.05,-1.05 -1.6,-5.3 -0.8,-2.9 -0.6,-1.2 -16.8,-0.4 -17.6,1.05 q -19.35,2.6 -24.85,11.8 l -0.75,1.5 q -1.25,2.8 -1.95,7.35 -0.15,1.05 -0.45,1.85"
         fill="#000000"
         fill-rule="evenodd"
         stroke="none"
         id="path990" />
      <path
         d="m -24.4,-137.15 q 0.3,-0.8 0.45,-1.85 0.7,-4.55 1.95,-7.35 l 0.75,-1.5 q 5.5,-9.2 24.85,-11.8 l 17.6,-1.05 16.8,0.4 0.6,1.2 0.8,2.9 1.6,5.3 -0.05,1.05 q -0.15,3 0,4.8 -7.95,3.15 -16.05,5.5 -15.55,4.55 -26.3,4.55 -13.05,0 -23,-2.15"
         fill="#ffcccc"
         fill-rule="evenodd"
         stroke="none"
         id="path992" />
    </g>
    <g
       id="shape0-49"
       transform="translate(40.9,-8.75)">
      <path
         d="m -28.9,15.65 q -1.4,2.1 -5.2,2.1 -6.05,0 -6.8,-6.25 v -0.15 l 13,0.3 q -0.15,2.7 -1,4 m 55,-4.65 -0.15,-0.8 9.3,-1.45 q 0.05,3.4 -0.25,4.6 -0.55,2.4 -2.9,2.4 -5.05,0 -6,-4.75"
         fill="#006f15"
         fill-rule="evenodd"
         stroke="none"
         id="path1014" />
    </g>
    <g
       id="shape1"
       transform="translate(48.9,-0.2)">
      <path
         d="m 42.8,10.1 q 0,5.9 -0.7,7.95 -2.05,5.75 -9.6,5.75 -9,0 -13,-6.85 Q 18.2,14.7 17.6,12.1 L 17.2,9.75 q 0,-1.25 1.05,-2.25 1.2,-1.3 3.25,-1.3 2.6,0 3.65,1.55 l 0.7,2.1 0.3,1.1 0.05,0.3 q 1.05,4.45 5.9,4.45 2.3,0 2.85,-2.35 0.3,-1.2 0.25,-4.6 V 8.7 L 35.15,8 Q 35.05,4.2 35.5,2.65 36.3,0.2 39,0.2 q 2.55,0 3.5,2.5 0.9,2.45 0.3,7.4 m -70.75,0.85 q 0.1,-3.65 0.45,-4.6 0.75,-2.15 3.5,-2.15 2.55,0 3.5,1.95 0.9,1.9 0.3,5.7 0,3.2 -3.25,7.95 -4.15,6 -10.05,6 -10.65,0 -14.05,-7.5 -1.7,-3.8 -1.25,-7.55 0,-5.55 3.8,-5.55 2.55,0 3.4,2 l 0.5,2.25 0.5,1.2 q 0.4,0.4 1.55,3.05 1.1,2.65 4.9,3.35 3.8,0.65 5.2,-1.4 0.45,-0.75 0.75,-1.85 l 0.25,-1.25 0.15,-1.95 -0.15,0.35"
         fill="#000000"
         fill-rule="evenodd"
         stroke="none"
         id="path1017" />
    </g>
  </defs>
  <sodipodi:namedview
     inkscape:window-maximized="0"
     inkscape:window-y="96"
     inkscape:window-x="135"
     inkscape:window-height="650"
     inkscape:window-width="885"
     showguides="false"
     showgrid="false"
     inkscape:document-rotation="0"
     inkscape:current-layer="svg8"
     inkscape:document-units="mm"
     inkscape:cy="194.74599"
     inkscape:cx="141.47723"
     inkscape:zoom="0.87293198"
     inkscape:pageshadow="2"
     inkscape:pageopacity="0.0"
     borderopacity="1.0"
     bordercolor="#666666"
     pagecolor="#ffffff"
     id="base"
     inkscape:showpageshadow="2"
     inkscape:pagecheckerboard="0"
     inkscape:deskcolor="#d1d1d1" />
  <metadata
     id="metadata5">
    <rdf:RDF>
      <cc:Work
         rdf:about="">
        <dc:format>image/svg+xml</dc:format>
        <dc:type
           rdf:resource="http://purl.org/dc/dcmitype/StillImage" />
      </cc:Work>
    </rdf:RDF>
  </metadata>
  <g
     inkscape:groupmode="layer"
     inkscape:label="head"
     id="layer2">
    <use
       inkscape:label="face"
       transform="matrix(0.21847432,0,0,0.21847432,9.324628,24.827831)"
       y="0"
       x="0"
       id="use864"
       xlink:href="#shape0-4"
       width="172.55"
       height="156.95" />
    <use
       inkscape:label="eyes"
       y="0"
       x="0"
       id="use926"
       xlink:href="#shape0-8"
       width="102.75"
       transform="matrix(0.21847432,0,0,0.21847432,19.726548,35.866671)"
       height="59.5" />
    <use
       inkscape:label="mouth"
       y="0"
       x="0"
       id="use986"
       xlink:href="#shape0-7"
       width="77.400002"
       transform="matrix(0.21847432,0,0,0.21847432,19.814513,49.426836)"
       height="31.799999" />
    <path
       inkscape:label="hair-color"
       style="stroke-width:0.218474"
       id="path948"
       stroke="none"
       fill-rule="evenodd"
       fill="#eb585a"
       d="m 31.740587,16.400438 q 5.003061,1.693176 9.197769,4.074547 2.064582,1.157913 3.419123,2.927555 l 1.037753,1.452854 q 0.600804,0.830203 1.157914,1.387312 l 0.06554,0.142008 -0.0437,0.142009 -0.131085,0.08739 -0.273093,0.05462 h -0.08739 l -0.06554,-0.01093 -1.092372,-0.262169 0.02185,0.01093 -0.88482,-0.09831 -0.251246,0.01092 q -0.731889,0.07647 -0.742812,0.677271 0.03277,0.589881 5.527389,7.679373 l 0.04368,0.163855 -0.07646,0.142009 -0.163847,0.0437 h -0.05458 l -0.436949,-0.05462 -0.06556,-0.02185 q -1.20161,-0.535263 -2.272134,-0.928517 l -0.939439,-0.316788 -2.741853,-0.426025 h -0.01092 l -0.26217,0.02185 q -0.710041,0.07646 -0.731889,0.633576 l -0.05461,0.152932 -0.142009,0.06555 -0.76466,0.08739 h -0.05463 l -0.120161,-0.02185 -0.08739,-0.07646 -0.03277,-0.109237 q -0.152938,-1.562109 -5.03584,-8.6516 -0.229397,-0.305865 -1.496548,-2.348599 -1.103296,-1.79149 -2.020888,-2.883861 -1.91165,-2.272133 -4.118241,-3.058641 h -0.02185 l -1.146989,-0.316788 0.02185,0.01092 -1.234379,-0.109236 h -0.03277 l -1.0596,0.05462 -0.535262,0.142008 -0.0437,0.03277 -0.09831,0.05462 -0.07647,0.01092 -0.09831,-0.01092 q -0.06553,-0.02185 -0.10923,-0.06554 -0.830201,-1.004982 -1.35454,-1.245304 l -0.109237,-0.09831 -0.02185,-0.131084 0.05461,-0.12016 0.131084,-0.06554 0.906669,-0.131085 q 2.588921,-0.797432 4.795511,-0.426025 l 0.48065,0.01092 h 0.218474 l 0.03277,0.01092 h 0.03277 l 0.109237,0.06554 0.06555,0.109237 -0.02185,0.142008 -0.05462,0.207551 3.943461,1.179761 h 0.01092 m -2.752776,4.019928 q 2.577997,2.818318 3.014946,3.451894 4.303944,6.215594 4.806435,7.056721 l 0.03277,0.120161 -0.0437,0.12016 -0.109236,0.07646 q -1.507473,0.491567 -2.599845,0.622652 l -0.218474,0.03277 0.02185,0.06555 q 0,0.07646 0.03277,0.120161 l 0.05462,0.120161 -0.02185,0.131084 -0.09831,0.08739 -1.769642,0.884821 -0.131085,0.02185 -0.09831,-0.01093 -0.120166,-0.109239 q -2.654456,-5.330767 -2.96032,-6.008037 -1.638557,-3.495589 -4.096394,-7.297042 l -1.44193,-2.108277 q -0.06555,-0.07646 -0.0437,-0.152933 l 0.08739,-0.152932 0.152931,-0.0437 h 0.05462 q 1.365464,0.163857 3.288038,1.103296 0.819279,0.393254 1.463779,1.037754 0.349558,0.327711 0.742812,0.830201 m -1.507473,16.702363 -0.699118,0.17478 q -0.262169,0.09831 -0.327712,0.20755 v 0.01092 0.05462 l 0.01092,0.142009 q -0.02185,0.06555 -0.07646,0.109237 l -0.131084,0.0437 -1.900727,0.08739 q -0.08739,0.01093 -0.152932,-0.05462 -0.07646,-0.06554 -0.07646,-0.152932 -0.152933,-3.462818 -1.332694,-8.891905 -0.185703,-0.808355 -0.415101,-2.752777 l -0.404185,-3.288041 q -0.349559,-2.403217 -0.819279,-3.298962 -0.218474,-0.393254 -0.436948,-0.436949 -0.393254,0.02185 -0.502491,0.338635 v 0.01092 l -0.05462,0.819279 1.52932,8.902829 v -0.01092 q 1.310846,6.029891 1.310846,9.132227 0,0.600805 -0.229398,0.557109 h -0.02185 l -0.06555,-0.02185 -0.02185,-0.01093 h -0.01093 -0.02185 -0.02185 -0.229399 -0.109237 -0.01092 -0.09831 -0.01093 l -0.207551,-0.01092 -5.505553,0.109236 -0.535262,0.08739 -0.786508,0.20755 -0.568032,0.06554 -1.267152,0.03277 h -0.05463 l -0.131085,-0.0437 -0.07646,-0.109238 q -0.109208,-0.371389 -0.283988,-2.818301 l -0.163856,-3.014946 q 0,-5.145071 2.206591,-10.443072 0.469719,-1.136067 1.507473,-3.266192 v 0.01093 q 0.644499,-1.332699 0.655422,-1.649486 v -0.01093 q 0.02185,-0.29494 -0.142008,-0.436949 -0.20755,-0.163855 -0.622652,-0.174779 h -0.0437 l -0.251245,0.03277 h -0.01093 l -0.294936,0.07646 q -1.551167,0.600805 -2.577997,4.118241 -0.426025,1.431007 -0.753737,3.353581 -0.819278,4.653503 -0.819278,8.389414 l -0.01093,4.216555 q 0.185703,3.69222 0.961288,3.943463 l 0.174779,-0.09831 0.131084,-0.02188 h 0.08739 l 0.131084,0.09831 0.775584,1.07052 q 1.037754,1.398223 1.02683,2.293962 0.01092,0.764656 -0.720965,1.452847 -0.589881,0.546185 -0.589881,1.496546 0,0.546182 0.426025,1.638543 0.415101,1.114216 0.447872,1.780561 l -0.03277,-0.09831 -0.08739,-0.07646 -0.109237,-0.02188 0.05462,0.02188 0.08739,0.07646 0.03277,0.12016 v 0.0109 q 0,0.06556 -0.03277,0.120158 l -0.09831,0.07646 -0.02185,0.0109 h -0.0437 -0.02185 -0.02185 -0.02185 q -0.196627,0.02188 -0.349559,0.163858 -0.207543,0.185696 -0.207543,0.491562 0,0.666343 0.20755,1.299915 v 0.142006 l -0.644496,1.573008 q 0.02185,0.61172 0.491567,1.332687 v 0.0109 q 0.458796,0.71004 0.524339,1.136056 v -0.0109 l 0.01092,0.04368 -0.02185,0.131084 q -0.03277,0.06556 -0.09831,0.09831 l -0.07646,0.02188 h -0.03277 -0.02185 l -0.09831,0.0109 -0.305865,0.0109 -0.58988,0.03278 h -0.01093 l -0.622652,0.0109 -0.338635,0.0109 -0.873898,0.0109 -0.120158,-0.0109 -0.09831,-0.06556 -0.557109,-0.666342 q -1.0486681,-1.234378 -1.0377445,-2.06457 0,-0.961285 0.3386351,-2.141039 Q 9.7292971,51.89137 9.7292971,51.596439 9.7183731,51.410732 9.3141957,50.471296 8.844476,49.400778 8.8553996,49.062149 8.8444752,47.893317 9.8822291,46.353085 l 0.9394389,-1.38731 Q 10.79982,44.791001 10.100703,43.731408 9.281425,42.51888 9.2923485,41.524822 l 0.010924,-0.04368 0.2949416,-1.540242 0.05462,-0.120161 q 0.4041769,-0.436948 0.5243379,-1.376387 0.05462,-0.415102 0.05462,-0.906669 l -0.01092,-0.447872 -0.05462,-0.841126 v -0.02185 q 0.174778,-1.758714 -0.152934,-2.42506 -0.09831,-0.185704 -0.2403219,-0.251246 -1.6167092,5.767722 -1.6276328,6.062662 0,0.207551 0.08739,0.338635 0.054622,0.07646 0.043698,0.163856 -0.1310848,0.873905 -0.1310848,1.573012 0,1.190681 0.065538,1.518394 0.1966271,0.939428 0.9722111,1.40915 l 0.087389,0.08739 0.021849,0.109233 -0.032773,0.109244 q -1.3326933,2.119182 -1.4528543,2.45782 -0.076463,0.196622 -0.08739,1.07052 l -0.010924,0.688183 q 0.010924,0.535261 0.6008045,2.654451 v 0.05458 l -0.2184751,1.223452 v -0.0109 q -0.2075505,1.354528 -0.1638562,2.468746 v 0.0109 q 0.08739,2.501517 1.3873121,3.178775 l 0.08739,0.07646 0.032773,0.120168 -0.032773,0.109236 q -0.1638562,0.29494 -0.1638562,0.633569 l -0.043698,0.349554 q 0.010924,0.284018 0.1747789,0.51342 l 0.032773,0.05458 q 0.043698,0.04368 0.054622,0.120152 l -0.032773,0.131084 q -0.142009,0.218478 -0.1857033,0.611729 v 1.518388 l -0.054622,0.62265 q -0.043698,0.655423 0.054622,1.20161 0.2512451,1.551166 1.529321,1.594864 h 0.05462 q 0.535262,-0.0109 0.699117,-0.33864 v -0.0109 q 0.371407,-0.884819 0.513415,-1.004979 0.05462,-0.05458 0.142008,-0.06556 h 0.0437 0.01093 l 0.142008,0.04368 0.08739,0.131085 q 0.196626,0.808348 0.50249,3.298955 v -0.0109 q 0.131084,0.742818 0.305864,1.212534 v 0.131085 l -0.07646,0.12016 q -0.327715,0.251245 -0.436953,0.96129 v 0.0109 q -0.109236,0.62265 -0.07646,1.409158 0,0.07646 -0.03277,0.131084 l -0.109239,0.08739 -0.09831,0.0109 -0.09831,-0.0109 Q 12.056075,72.395048 9.5763921,71.226214 L 8.866351,70.898499 8.833578,70.887599 4.04899,67.654182 q -0.065538,-0.04368 -0.087389,-0.12016 l 0.010924,-0.152934 q 0.5789571,-1.179761 1.3436166,-5.232457 0.775584,-4.085449 0.8192792,-7.428082 0.032773,-3.375409 0.1747797,-7.05668 0.1420082,-3.670348 0.1420082,-6.357572 v -1.69318 q 0.043676,-7.078568 0.8847992,-11.939622 0.3277115,-2.141049 3.5283611,-6.805474 1.715024,-2.501532 2.698158,-3.473742 l -0.01092,0.01092 q 0.07646,-0.08739 0.109237,-0.229399 v -0.01092 q 0.05462,-0.251245 0.349555,-0.404177 0.273093,-0.152932 1.212533,-0.38233 l 0.327711,-0.07646 0.03277,-0.01092 2.403218,-0.480644 1.999041,-0.371406 0.327711,-0.05462 h 0.06555 l 0.12016,0.01093 0.09831,0.08739 0.02185,0.131084 q -0.01092,0.06554 -0.05462,0.120161 l -0.05462,0.08739 -0.120161,0.305864 1.671328,2.905709 10.006124,17.532564 0.02185,0.142009 -0.07646,0.131084 -0.142008,0.0437 h -0.0437 l -4.347639,0.240321 m 17.576259,-1.431007 0.120161,-0.109237 0.109238,-0.02185 0.109236,0.02185 1.780572,0.699118 0.109236,0.09831 0.02188,0.152931 -0.0874,0.131085 q -0.12016,0.09831 -0.163855,0.284017 -0.05462,0.174779 -0.05462,0.994058 0,0.578957 0.327713,1.343617 v 0.01092 l 0.677269,1.431007 q 0.950358,1.955339 0.513409,3.266178 v 0.0109 q -0.371403,1.114218 0.142009,2.490593 h 0.0109 q 0.109235,0.316791 0.273091,0.644496 l 0.731883,1.441923 0.0109,0.0109 q 0.371411,0.862974 0.371411,1.562081 0.02188,0.382327 -0.589882,1.12514 -0.45879,0.546185 -0.502487,0.884814 1.103294,3.244325 1.092369,3.724971 0.0109,0.142001 -0.207555,0.622645 l -0.08739,0.109236 -0.120158,0.02188 h -0.07646 l -0.644496,-0.08739 -2.698151,-0.120158 -0.447872,0.0109 -0.218474,0.0109 h -0.03277 -0.02185 l -0.131085,-0.03278 -0.07646,-0.09832 -1.44193,-3.047693 q -0.0437,-0.07646 -0.02185,-0.142009 l 0.08739,-0.12016 q 0.895745,-0.666343 1.61671,-1.354534 2.15197,-2.06457 2.173819,-3.834207 -0.0109,-0.174779 -0.273091,-0.884814 l -0.841127,-2.11919 q -1.212535,-2.851063 -1.278077,-3.255239 -0.109238,-0.568033 -0.08739,-1.835187 l 0.03277,-2.130124 v -0.01092 q -0.02185,-1.125144 -0.218475,-1.736872 l 0.01093,-0.163855 m 0.972211,25.375682 0.415101,0.05466 0.458796,0.0109 h 0.03277 l 2.009954,-0.142009 0.808354,-0.218469 0.09831,-0.0109 0.0874,0.0109 0.12016,0.07646 0.04368,0.131082 q -0.0109,1.168832 0.163857,3.058627 v 0.02188 q 0.06556,2.108278 -0.797429,3.211577 l -0.12016,0.08739 h -0.07646 l -0.131085,-0.02188 q -0.06556,-0.03278 -0.09832,-0.09832 -0.131085,-0.273093 -0.109236,-1.026827 l 0.03278,-1.223459 Q 48.9454,63.732508 48.257239,63.645121 h -0.0109 -0.03278 q -0.589874,0.04368 -1.004974,0.797432 -0.666351,1.146988 -1.267156,1.376384 l -0.109237,0.0109 -0.08739,-0.0109 q -0.07646,-0.02188 -0.120162,-0.07646 -0.316787,-0.415102 -0.316787,-1.496544 v -0.03278 l 0.415101,-2.960324 0.0437,-0.109236 0.08739,-0.06556 0.09831,-0.0109 h 0.07646 M 43.068487,54.39278 v 0.02188 l -0.0437,0.546184 v 0.0109 q -0.01092,0.568025 0.109238,1.037747 0.251245,1.092359 1.14699,1.343604 l 0.109237,0.06556 0.05462,0.09832 -0.01092,0.120161 -0.05462,0.174773 v 0.972213 l -0.0437,0.458798 q -0.01092,0.415092 0.152932,0.764654 l 0.196627,0.338631 0.0437,0.109234 -0.01092,0.109235 q -0.196627,0.491571 -0.327712,1.332688 -0.229398,1.343616 -0.229398,2.315831 0,1.791486 0.185703,2.337674 l 0.524339,1.540242 0.01092,0.12016 -0.06554,0.109235 -0.109237,0.05458 q -1.037753,0.21848 -2.414141,0.819281 -0.797431,0.338632 -1.299923,0.62265 l -0.131084,0.02188 h -0.08739 L 40.643423,69.729659 37.60663,64.540897 q -0.436948,0.12016 -0.436948,0.797432 l 0.284016,0.98313 q 0.371407,1.190686 0.808355,2.20659 0.338636,0.797432 0.677271,1.387316 l 0.02185,0.131085 -0.05462,0.12016 -0.109236,0.07646 -1.343618,0.36048 -2.359522,0.633575 h -0.02185 q -1.507467,0.218463 -2.80739,-0.163867 L 31.7406,71.018678 q -0.08739,-0.0109 -0.142008,-0.06556 -0.05462,-0.06556 -0.05462,-0.152934 l -0.03277,-3.866991 v -0.0109 q -0.20755,-2.086429 -1.168836,-2.184748 h -0.01093 -0.03277 q -0.262169,0.02188 -0.415101,0.240328 -0.142009,0.185699 -0.142009,0.360481 0,0.666347 0.371407,1.813335 0.360483,1.136064 0.284016,1.966269 v 0.0109 q -0.01092,0.24032 -0.393254,1.114215 -0.174779,0.371413 -0.240321,0.666347 l -0.07646,0.12016 -0.131084,0.04368 h -0.03277 l -3.113259,0.382338 h 0.01092 l -0.644499,0.12016 -1.070524,0.207547 h -0.07646 L 24.48726,71.750525 Q 24.4108,71.695945 24.39987,71.608516 L 23.7226,68.538957 q -1.146991,-4.806441 -1.485626,-4.893828 -0.546186,0.05458 -0.546186,0.841121 0,0.360489 0.568033,3.582982 0.458796,2.632616 0.786508,3.98716 l -0.01092,0.142009 q -0.03277,0.06556 -0.09831,0.09831 l -0.152932,0.08739 0.01092,0.273094 -0.142008,-0.07646 h -0.05462 l 0.0437,0.0109 0.109238,0.06556 0.03277,0.04368 -0.371406,0.131084 v -0.05466 l 0.08739,-0.142009 0.07646,-0.04368 0.02185,-0.0109 h -0.02185 l -0.06554,0.0109 -0.109237,0.07646 -0.0437,0.12016 v 0.09831 q -0.01092,0.0874 0.05462,0.152934 0.05461,0.06556 0.142008,0.07646 l -0.426025,-0.03278 -5.287078,-0.218472 -1.999041,0.08739 -0.491567,0.06556 -0.131084,0.02188 -0.03277,0.0109 0.02185,-0.0109 q 0.07647,-0.0109 0.131085,-0.06556 l 0.0437,-0.142009 v -0.0109 -0.03278 l -0.03277,-0.08739 -0.09831,-0.08739 0.06555,0.12016 0.01092,0.05458 v 0.0109 l -0.03277,0.152934 -0.09831,0.07646 h 0.01092 0.01092 l -0.0437,0.0109 h -0.01093 l -0.02185,0.0109 h -0.01092 -0.02185 -0.03277 l -0.03277,-0.02188 -0.109238,-0.109236 -0.01092,-0.142009 0.0437,-0.0874 0.109238,-0.07646 0.05461,-0.0109 0.120161,0.0109 -0.01093,-0.0109 -0.09831,-0.04368 -0.03277,-0.0109 -0.142008,0.05458 -0.07646,0.12016 q 0.207551,-0.994055 0.207551,-2.009958 v -0.02188 l 0.02185,-0.251245 0.0437,-0.131085 0.09831,-0.07646 q 1.256228,-0.447876 1.758719,-2.851096 0.185703,-0.983131 0.240322,-2.173817 l 0.02185,-1.157912 v -0.02188 q 0.120161,-1.212534 0,-2.370442 -0.196625,-1.922553 -1.059598,-2.141031 l -0.09831,-0.05466 -0.06555,-0.09831 v -0.12016 q 0.05462,-0.21847 0.01092,-0.426025 l 0.01092,-0.131082 0.02185,-0.04368 q 0.08739,-0.218464 0.08739,-0.731875 -0.01092,-0.360492 -0.491568,-1.485624 l -0.436948,-1.004974 -0.01093,-0.142009 0.09831,-0.120158 0.142008,-0.03278 h 0.05462 l 0.131085,0.07646 q 0.873897,0.994056 2.326751,1.922567 0.862973,0.557109 1.747795,0.994056 l 5.669408,1.267149 6.903789,-0.852049 1.015906,-0.262169 q 4.009003,-1.0596 7.570135,-2.851082 1.496549,-0.75373 2.741853,-1.540232 l 0.142009,-0.03278 h 0.05461 l 0.131085,0.06556 0.06555,0.142009 0.02185,0.338635 M 13.78202,51.25749 13.83664,51.3558 13.80387,51.31212 13.78202,51.25754 m -0.338635,10.027938 0.873897,-0.174782 0.09831,-0.0109 h 0.07646 l 0.109237,0.06556 0.05461,0.109236 0.480644,2.687231 v 0.03278 q 0,2.151968 -0.393254,2.90571 l 0.02185,-0.12016 -0.0437,-0.109244 -0.08739,-0.06556 h -0.01092 l -0.0437,-0.02188 -0.09831,-0.0109 0.08739,0.03278 0.05462,0.03278 0.0437,0.03278 0.0437,0.109244 -0.02185,0.109236 v 0.0109 l -0.01093,0.0109 v 0.0109 l -0.109237,0.08739 -0.05462,0.0109 h 0.0437 -0.01093 l -0.0437,0.0109 -0.05462,-0.0109 -0.05462,-0.03278 -0.09831,-0.09831 -0.02185,-0.131085 0.06554,-0.12016 h 0.01092 l 0.01092,-0.02188 0.09831,-0.04368 h 0.02185 l -0.03277,-0.0109 -0.08739,-0.02188 -0.06554,0.02188 -0.120161,0.109236 -0.02185,0.07646 Q 14.03323,65.261651 13.902145,64.344059 13.705518,62.858431 12.995477,62.771044 h -0.01092 -0.01092 q -0.404178,0.04368 -0.884822,0.600809 v -0.0109 q -0.76464,0.884819 -1.278055,1.136063 l -0.109237,0.02188 h -0.07646 l -0.12016,-0.06556 -0.05462,-0.05458 -0.05462,-0.07646 -0.01092,-0.09832 q 0.174779,-1.540242 0.152932,-2.348595 l -0.02185,-0.382327 0.02185,-0.131085 0.09831,-0.09831 0.12016,-0.02188 0.06554,0.0109 0.622652,0.07646 0.742813,0.02188 h 0.0437 l 1.212533,-0.06556 m 8.968371,11.655598 0.38233,-0.131085 v 0.06556 l 0.05462,-0.12016 h 0.01092 q 0.0437,0.04368 0.05462,0.12016 0.01093,0.06556 -0.01092,0.131085 l -0.08739,0.0874 -0.08739,0.03278 h -0.05461 l 0.02185,-0.04368 0.01093,-0.02188 -0.08739,0.0109 q -0.08739,0 -0.152932,-0.06556 l -0.05461,-0.06556" />
    <g
       inkscape:label="hair-outlines"
       transform="matrix(0.21847432,0,0,0.21847432,26.956261,87.533283)"
       id="g970">
      <path
         d="m -59.75,-165.8 q -0.15,-2.95 -2,-7.85 -2.05,-5.3 -2,-7.85 -0.05,-4.85 3,-7.6 3,-2.8 3,-5.9 0,-3.85 -4.5,-9.9 l -3.6,-5 -1.15,0.6 q -4.9,0 -5.8,-19.05 l 0.05,-19.35 q -0.05,-17.2 3.75,-38.6 1.5,-8.8 3.45,-15.45 4.9,-16.75 12.45,-19.5 l 1.55,-0.4 1.55,-0.15 q 5,0 4.75,3.85 0,1.55 -3.1,7.95 -4.75,9.7 -6.9,14.85 -10.05,24.1 -10,47.45 0,3.2 0.75,13.7 0.8,11.05 1.25,12.7 l 8.2,-0.45 q 1.45,-0.3 3.55,-0.95 5.65,-1.3 31.25,-0.85 0.25,-0.1 0.45,0.15 l 0.05,-1.55 q 0,-14.1 -6,-41.6 l -7,-40.9 q 0,-3.25 0.3,-4.1 0.7,-2.25 3.45,-2.25 1.55,0 2.9,2.55 2.25,4.2 3.9,15.4 l 1.85,15.05 q 1.05,8.85 1.85,12.5 5.45,25 6.15,40.9 l 0.1,4.45 q 0,2.5 0.4,5.25 0.1,1.6 -1.15,1.9 -1.05,0.25 -6.25,0.05 l -14.9,-0.3 q -14.2,0 -23.6,2.75 2.45,2.5 4.5,7.55 2.05,5.05 3,10.35 0,4.4 -3,8.85 -3,4.45 -3,5.8 0,0.9 2,6.2 2,5.25 2,9.55 0,2.9 -1.65,7.15 2.55,4.85 4.75,7.5 12.95,15.35 47.75,15.35 10.75,0 26.3,-4.55 15.05,-4.4 29.45,-11.4 14.95,-7.3 23.95,-14.95 9.85,-8.4 9.85,-15.1 0,-1.2 -1.85,-5.45 -3.35,-7.4 -4.15,-9.5 -6.05,-15.15 -6,-28.25 v -8.6 q 0.35,-4.1 1.55,-5.8 l -15.55,-6.2 q -0.05,-4 5.75,-4 7.85,0 17.3,3.45 l 10.45,4.3 2,0.25 q -25.55,-32.9 -25.5,-35.75 -0.05,-6.75 15,-2.5 l 1.25,-0.25 q -2.65,-2.6 -5.45,-6.5 l -4.7,-6.6 q -6.1,-7.95 -15.35,-13.15 -19.15,-10.85 -42,-18.55 -16.45,-4.8 -18.5,-5.55 -0.3,-0.1 -0.3,-0.15 0,-1.25 0.4,-2.05 l 0.05,-0.05 h -0.2 q -10.25,-0.5 -28.85,2.5 2.55,1.15 6.6,5.95 l 0.4,-0.35 q 1.8,-1 8,-1 5.85,0 11.35,1.95 10.4,3.65 19.35,14.3 4.25,5.05 9.35,13.3 l 6.8,10.7 Q 58,-251.7 58.6,-244.4 l 0.05,0.35 q 0.65,5.75 -3.75,5.75 -2.5,0 -4.85,-3.85 -2.05,-4.2 -2.7,-4.9 -4.3,-4.65 -11.55,-4.85 l -4.1,-0.15 q -0.8,-0.1 -1.2,-0.55 -0.4,-0.45 -0.4,-1.2 0,-0.9 0.25,-1.1 l 1.5,-0.35 q 4.95,-0.6 11.75,-2.8 -2.3,-3.8 -22,-32.25 -1.95,-2.9 -13.75,-15.75 l -3.3,-3.7 q -2.85,-2.8 -6.45,-4.55 -8.6,-4.2 -14.7,-4.95 3,4.05 6.65,9.7 11.3,17.45 18.8,33.5 1.4,3.1 13.55,27.5 l 1.4,2.85 q 10.8,21.75 10.8,23.25 0,5.15 -3.75,5.15 -2.35,0 -3.2,-2.85 -0.85,-2.9 -1.05,-2.9 l -27.2,-2.6 q -2.5,-0.35 -3,-0.8 -0.3,-0.25 -0.3,-1.35 -0.2,-0.55 0,-1 0.3,-0.9 2.1,-1.55 5.4,-1.95 23.65,-1.95 -3.2,-6.1 -45.8,-80.2 l -7.8,-13.55 q 0,-1.15 0.75,-2.25 l 0.35,-0.45 -1.5,0.25 -9.1,1.7 -10.95,2.25 h -0.1 l -1.55,0.4 q -4.15,0.95 -5.35,1.6 -0.9,0.5 -1.1,1.25 -0.2,0.95 -0.7,1.5 -4.45,4.4 -12.25,15.75 -14.5,21.1 -16,30.75 -3.85,22.2 -4,54.5 v 7.75 q 0,12.3 -0.4,32.7 l -0.6,29.6 q -0.35,14.4 -4.7,36.55 -3.1,15.5 -5.75,20.95 l 21.9,14.8 3.25,1.5 q 11.25,5.3 12.55,5.7 -0.2,-3.7 0.35,-6.7 0.6,-3.75 2.35,-5.1 -0.8,-2.2 -1.4,-5.7 -1.45,-11.35 -2.3,-15 -0.55,0.5 -2.15,4.3 -0.9,2.2 -4.35,2.2 -6.95,0 -8.25,-8.15 -0.45,-2.6 -0.25,-5.75 l 0.25,-2.75 v -7.1 q 0.25,-2.05 0.95,-3.2 l -0.2,-0.3 q -0.95,-1.35 -0.95,-3 l 0.2,-1.5 q -0.05,-1.8 0.85,-3.4 -6.45,-3.25 -6.85,-15.45 -0.25,-5.2 0.75,-11.5 l 1,-5.4 q -2.8,-9.95 -2.75,-12.4 v -3.2 q 0.1,-4.25 0.5,-5.2 0.5,-1.55 6.75,-11.45 -4,-2.35 -4.95,-7.1 -0.35,-1.6 -0.3,-7.2 -0.05,-3.3 0.6,-7.35 -0.65,-0.8 -0.6,-2.15 -0.05,-1.4 7.75,-29 1.9,0 2.9,1.95 1.65,3.15 0.85,11.65 l 0.25,3.75 0.05,2.15 q -0.05,2.35 -0.25,4.25 -0.65,4.75 -2.7,6.9 l -1.35,7.1 q -0.05,4.3 3.5,9.6 3.5,5.25 3.5,6.2 l -4.5,6.9 q -4.55,6.75 -4.5,11.85 -0.05,1.4 2,6.05 2,4.6 2,5.55 0,1.35 -1.5,6.6 -1.55,5.25 -1.5,9.55 -0.05,3.45 4.5,8.8 l 2.55,3.05 q 3.1,-0.9 7.2,-0.85 l 5.95,0.45 q -0.3,-1.85 -2.3,-5 -2.45,-3.75 -2.4,-6.85 l 3,-7.4 q -1.05,-3.05 -1,-6.2 -0.05,-1.85 1.25,-3 1.05,-1.05 2.5,-1 h 0.25 v -0.05 M 7.9,-333.75 9.85,-333.8 q 13.85,0 30.95,7.15 15.3,6.4 30.1,17.1 13.95,10.15 22.75,20.6 9,10.75 9,17.65 0,4 -4.75,4 -1.6,0 -6.45,-2.1 -5.45,-2.3 -7.05,-2.65 4.05,5.95 14.7,19.5 8.55,12.1 8.55,19.5 0,4.75 -3.75,4.75 l -5.35,-2.05 q 2.8,4.85 4.15,16.6 1.1,10 0.95,20.25 l 4,10.05 q 4,10.45 4,13.55 0,1.45 -4,9.75 -0.05,1.4 2,6.7 2,5.25 2,9.05 0,7.35 -2.75,9.85 l -0.25,3.05 q -0.05,0.9 0.45,3.5 0.15,1.9 -0.35,3.35 3.2,0.8 3.95,8.45 0.35,4.3 -0.05,8.8 0,6.15 -2.45,15.4 -3.75,13.75 -10.3,13.75 -2.5,0 -4.8,-6.7 -2,-5.85 -1.95,-9.55 h -0.5 l -0.9,9.5 q -1.25,6.75 -4.85,6.75 -1.55,0 -2.05,-0.35 l -1.45,-0.9 -0.2,-0.6 q -5.75,2.35 -16.55,5.15 -0.15,3.7 -3.75,3.7 -1.6,0 -3.1,-0.9 -3.45,1.25 -8.9,2.4 -12,2.5 -21.05,2.5 -10.35,0 -15,-2.05 -7.8,0.65 -15,2.05 l -9.6,1.55 0.5,2.55 q 0,2.7 -0.5,3.5 -0.7,1.1 -3.2,1.4 H -37.5 l 8.75,-1.75 q -25.2,2.6 -33,1.4 -2.9,-0.45 -3.65,-1.45 l -0.2,-0.25 q -9,-0.8 -19.9,-7.95 L -89,-70.7 q -6.35,-1.55 -13.7,-8.45 -3.15,-2.95 -5.85,-6.25 -2.25,-2.75 -2.2,-3 v -0.75 q -1.05,-0.9 -1,-2.6 -0.05,-8.7 5,-31.1 5,-22.45 5,-30.4 1.4,-28.55 1,-61.55 -0.3,-33.6 4.25,-61.5 0.85,-5.85 6.05,-14.75 l 10.2,-16 q 1.9,-3 5.95,-7.95 3.85,-4.7 5.8,-7.8 8.15,-12.95 23.55,-14.15 4.65,-0.4 13.5,0.2 l 13.45,0.45 10.85,-0.5 q 11.55,0 14.3,1.8 0.8,0.55 0.75,1.25 m 76.55,105.7 -0.15,9.8 q -0.1,5.7 0.35,8.2 0.3,1.85 5.8,14.75 l 3.9,9.7 q 1.3,3.55 1.3,4.45 0,8.4 -10.25,18.25 -3.4,3.2 -7.55,6.25 l 6.6,13.95 2.95,-0.05 15.9,0.95 0.85,-2.45 q 0,-2.15 -5,-16.9 -0.05,-1.85 2.5,-4.85 2.5,-3 2.5,-4.5 0,-3 -1.65,-6.75 l -3.35,-6.6 -1.35,-3.05 q -2.5,-6.7 -0.65,-12.1 1.85,-5.75 -2.3,-14.3 l -3.15,-6.65 q -1.6,-3.7 -1.55,-6.5 0,-3.95 0.25,-4.85 0.3,-1.2 1.15,-1.8 l -8.15,-3.25 q 0.95,2.9 1.05,8.3 M 86.4,-127 q 9.6,0 13.15,-2.3 2.6,-1.7 2.3,-5 l -2.45,0.05 -13.65,-0.65 0.1,2.05 -0.25,4 q -0.05,1.85 0.8,1.85 m 0.1,7.4 -1.85,13.6 q -0.05,4.5 1.25,6.25 2.5,-1 5.3,-5.85 2.35,-4.2 5.7,-4.15 4.35,-0.05 4.5,7.1 l -0.15,5.65 q -0.15,3.15 0.4,4.25 3.75,-4.85 3.45,-14.1 -0.8,-8.75 -0.8,-14.15 -4.55,1.75 -13.4,1.75 l -4.4,-0.35 m -106.95,52.75 q -0.3,-0.35 -0.3,-1.9 0,-0.6 1.25,-1.3 -1.55,-6.2 -3.65,-18.3 -2.6,-14.95 -2.6,-16.55 0,-4.9 3.75,-4.85 2.25,-0.05 7.75,23.15 l 3.1,14.1 4.9,-0.95 q 12.6,-2.3 17.5,-2.3 0.3,-1.4 1.1,-3.2 1.7,-3.85 1.75,-4.8 0.35,-3.65 -1.25,-8.65 -1.75,-5.5 -1.75,-8.6 0,-1.1 0.8,-2.25 1.1,-1.55 2.95,-1.5 5.5,-0.05 6.6,10.9 l 0.15,17.85 15,1 10.5,-2.85 6.2,-1.7 q -1.6,-2.8 -3.15,-6.45 -2,-4.7 -3.7,-10.2 -1.35,-4.4 -1.35,-4.8 0,-4.8 3.75,-4.75 l 14.3,24.35 q 2.35,-1.35 6.05,-2.9 6.35,-2.75 11.25,-3.8 l -2.4,-7.05 q -0.95,-2.55 -0.9,-11 -0.05,-4.5 1.05,-10.8 0.65,-3.95 1.55,-6.3 -0.65,-0.8 -1.05,-1.75 -0.85,-1.8 -0.75,-4 l 0.2,-2 v -4.5 l 0.3,-1.1 q -4.7,-1.3 -6,-6.9 -0.6,-2.25 -0.5,-5.05 l 0.2,-2.45 -0.15,-1.65 q -5.7,3.65 -12.6,7.15 -16.45,8.25 -34.9,13.1 -19.55,5.15 -36.65,5.15 -18.2,0 -34.6,-10.5 -6.8,-4.35 -10.85,-9.05 l 2,4.6 q 2.35,5.45 2.35,7.2 0,2.65 -0.5,3.75 l -0.05,0.15 q 0.2,1.2 -0.1,2.45 4.65,0.95 5.65,10.7 0.55,5.35 0,11.05 l -0.1,5.35 q -0.25,5.55 -1.15,10.1 -2.45,11.7 -8.7,13.75 l -0.05,1.3 q 0,4.75 -1,9.4 l -0.1,0.3 h 0.15 l 0.65,-0.15 q 10.2,-1.65 38.1,0.45 l 0.6,0.05 -0.6,-0.5 M -74.5,-126 l 14.3,0.5 q -1.6,-0.55 -1.55,-2.25 2.5,-1.3 0,-1.25 h -13.5 v 0.25 q 1.25,-0.05 0.4,1.4 -0.95,1.35 0.35,1.35 m 17,31.7 q 1.75,-3.3 1.75,-12.85 l -2.2,-12.3 q -3.55,1.2 -10.05,1.2 l -6.7,-0.5 0.15,1.85 q 0.1,3.7 -0.7,10.9 l 0.25,0.25 q 2.15,-1.1 5.55,-4.95 2.7,-3.1 4.95,-3.05 4.25,-0.05 5.35,8.05 0.55,4.2 1.15,11.2 l 0.5,0.25 v -0.05"
         fill="#000000"
         fill-rule="evenodd"
         stroke="none"
         id="path962" />
      <path
         d="m 86.4,-127 q -0.85,0 -0.8,-1.85 l 0.25,-4 -0.1,-2.05 13.65,0.65 2.45,-0.05 q 0.3,3.3 -2.3,5 Q 96,-127 86.4,-127 m -160.9,1 q -1.3,0 -0.35,-1.35 0.85,-1.45 -0.4,-1.4 V -129 h 13.5 q 2.5,-0.05 0,1.25 -0.05,1.7 1.55,2.25 l -14.3,-0.5"
         fill="#666766"
         fill-rule="evenodd"
         stroke="none"
         id="path964" />
      <path
         d="m -60,-165.75 0.25,-0.05 v 0.05 H -60 m 0.75,98.75 0.05,0.3 h -0.15 l 0.1,-0.3 m 38.8,0.6 v -0.45 l 0.6,0.5 -0.6,-0.05 M -58,-94.5 l 0.5,0.2 v 0.05 L -58,-94.5"
         fill="#ff1111"
         fill-rule="evenodd"
         stroke="none"
         id="path966" />
      <path
         d="m -58,-94.5 q -0.6,-7 -1.15,-11.2 -1.1,-8.1 -5.35,-8.05 -2.25,-0.05 -4.95,3.05 -3.4,3.85 -5.55,4.95 l -0.25,-0.25 q 0.8,-7.2 0.7,-10.9 l -0.15,-1.85 6.7,0.5 q 6.5,0 10.05,-1.2 l 2.2,12.3 q 0,9.55 -1.75,12.85 l -0.5,-0.2"
         fill="#eb585a"
         fill-rule="evenodd"
         stroke="none"
         id="path968" />
    </g>
  </g>
  <g
     transform="matrix(0.82572974,0,0,0.82572974,-32.8146,-19.948706)"
     id="layer1"
     inkscape:label="图层 1">
    <g
       inkscape:label="shoes"
       transform="matrix(0.26458333,0,0,0.26458333,73.294578,129.87669)"
       id="g1012">
      <use
         y="0"
         x="0"
         height="9"
         transform="translate(-40.9,8.75)"
         width="76.150002"
         xlink:href="#shape0-49"
         id="use1008" />
      <use
         y="0"
         x="0"
         height="25.6"
         transform="translate(-48.9,0.2)"
         width="91.949997"
         xlink:href="#shape1"
         id="use1010" />
    </g>
    <use
       inkscape:label="arms"
       y="0"
       x="0"
       id="use900"
       xlink:href="#shape0-9"
       width="115.85"
       transform="matrix(0.26458333,0,0,0.26458333,56.160971,94.068006)"
       height="94.5" />
    <use
       inkscape:label="body"
       y="0"
       x="0"
       id="use833"
       xlink:href="#shape0"
       width="112.35"
       transform="matrix(0.26458333,0,0,0.26458333,57.284473,92.929273)"
       height="151.95" />
    <use
       style="display:none"
       height="156.95"
       width="172.55"
       xlink:href="#shape0-4"
       id="use864-4"
       x="0"
       y="0"
       transform="matrix(0.26458333,0,0,0.26458333,50.939086,55.04875)"
       inkscape:label="face" />
  </g>
  <path
     inkscape:label="face-outlines"
     style="display:none;stroke-width:0.264583"
     id="path883"
     stroke="none"
     fill-rule="evenodd"
     fill="#000000"
     d="m 92.195062,68.990107 q 0.05292,-0.635 1.455208,-0.555625 0.727605,0.899583 0.740834,1.812396 l -0.03969,2.592918 q -0.02646,1.508121 0.0926,2.169578 0.0926,0.489477 1.534584,3.889346 l 1.031875,2.579678 q 0.343958,0.926034 0.343958,1.164161 0,2.235718 -2.711979,4.828613 -0.886354,0.846667 -3.532188,2.725195 -1.521354,0.965724 -3.346979,1.878528 -4.339166,2.182798 -9.220729,3.466022 -5.172604,1.362601 -9.696979,1.362601 -4.815417,0 -9.154583,-2.778112 -1.150938,-0.740827 -4.325938,-3.585082 -0.02646,-0.793744 0.0926,-1.111244 -0.264578,-0.806974 -0.264578,-1.653638 0,-0.489477 0.330729,-0.793747 0.291042,-0.264577 0.661459,-0.264577 2.288645,3.373419 2.870729,4.074556 3.426354,4.061336 12.633854,4.061336 2.844271,0 6.958541,-1.203851 3.98198,-1.164154 7.77875,-3.016235 3.955521,-1.931448 6.336771,-3.955496 2.606146,-2.222488 2.606146,-3.995189 0,-0.317497 -0.489479,-1.441971 l -1.098021,-2.513525 q -1.5875,-3.995179 -1.5875,-7.46122 v -2.275416" />
</svg>
